<svg width="1200" height="675" viewBox="0 0 1200 675" fill="none" xmlns="http://www.w3.org/2000/svg">
  <rect width="1200" height="675" fill="url(#paint0_linear)"/>
  <g opacity="0.35">
    <circle cx="1050" cy="130" r="210" fill="url(#paint1_radial)"/>
    <circle cx="180" cy="560" r="250" fill="url(#paint2_radial)"/>
  </g>
  <path d="M160 440C260 380 360 360 460 380C560 400 630 380 730 320C830 260 900 260 960 270" stroke="rgba(255,255,255,0.22)" stroke-width="40" stroke-linecap="round" stroke-linejoin="round"/>
  <path d="M330 320C390 270 470 260 530 290C590 320 650 300 710 250" stroke="rgba(255,255,255,0.28)" stroke-width="28" stroke-linecap="round"/>
  <path d="M230 270C280 210 360 170 440 200C520 230 540 250 610 220C680 190 760 140 850 160" stroke="rgba(255,255,255,0.16)" stroke-width="24" stroke-linecap="round"/>
  <g opacity="0.85">
    <path d="M700 210C660 200 630 175 645 155C660 135 695 145 710 160C725 175 750 200 780 195C810 190 855 150 865 125C875 100 900 105 910 130C920 155 900 195 855 225C810 255 780 265 760 270C740 275 720 265 700 210Z" fill="rgba(255,255,255,0.12)"/>
    <path d="M792 252C778 231 783 205 805 200C827 195 845 205 848 225C852 245 838 270 820 277C802 283 792 273 792 252Z" fill="rgba(255,255,255,0.15)"/>
  </g>
  <rect x="100" y="100" width="500" height="60" rx="30" fill="rgba(255,255,255,0.12)"/>
  <text x="125" y="140" fill="#FFE7B2" font-family="'Cinzel', 'Segoe UI', sans-serif" font-size="32" font-weight="600" letter-spacing="0.12em">BURNOUT RECOVERY GUIDE</text>
  <text x="100" y="220" fill="#FFFFFF" font-family="'Playfair Display', 'Georgia', serif" font-size="60" font-weight="700" letter-spacing="0.02em">Decision Fatigue at Work</text>
  <text x="100" y="290" fill="#FFFFFF" font-family="'Playfair Display', 'Georgia', serif" font-size="52" font-weight="600" letter-spacing="0.02em">A Four Pillars Routine</text>
  <text x="100" y="340" fill="rgba(255,255,255,0.78)" font-family="'Inter', 'Segoe UI', sans-serif" font-size="26" font-weight="500">
    <tspan x="100" y="340">for Burnout Recovery</tspan>
  </text>
  <text x="100" y="380" fill="rgba(255,255,255,0.62)" font-family="'Inter', 'Segoe UI', sans-serif" font-size="20">
    <tspan x="100" y="380">BaZi • Five Elements • Energy Management • Work-Life Balance</tspan>
  </text>
  <g opacity="0.6">
    <circle cx="980" cy="480" r="70" fill="none" stroke="#FFE7B2" stroke-width="3"/>
    <circle cx="980" cy="480" r="50" fill="none" stroke="#FFE7B2" stroke-width="2"/>
    <circle cx="980" cy="480" r="30" fill="none" stroke="#FFE7B2" stroke-width="1.5"/>
    <text x="950" y="490" fill="#FFE7B2" font-family="'Cinzel', 'Segoe UI', sans-serif" font-size="22" font-weight="600">恢复</text>
  </g>
  <defs>
    <linearGradient id="paint0_linear" x1="140" y1="40" x2="1060" y2="635" gradientUnits="userSpaceOnUse">
      <stop offset="0" stop-color="#0B1224"/>
      <stop offset="0.4" stop-color="#111C3D"/>
      <stop offset="1" stop-color="#1B2852"/>
    </linearGradient>
    <radialGradient id="paint1_radial" cx="0" cy="0" r="1" gradientUnits="userSpaceOnUse" gradientTransform="translate(1050 130) rotate(90) scale(210)">
      <stop stop-color="#F59E0B" stop-opacity="0.55"/>
      <stop offset="1" stop-color="#F59E0B" stop-opacity="0"/>
    </radialGradient>
    <radialGradient id="paint2_radial" cx="0" cy="0" r="1" gradientUnits="userSpaceOnUse" gradientTransform="translate(180 560) rotate(90) scale(250)">
      <stop stop-color="#10B981" stop-opacity="0.4"/>
      <stop offset="1" stop-color="#10B981" stop-opacity="0"/>
    </radialGradient>
  </defs>
</svg>

