<svg width="1200" height="675" viewBox="0 0 1200 675" fill="none" xmlns="http://www.w3.org/2000/svg">
  <rect width="1200" height="675" fill="url(#paint0_linear)"/>
  <g opacity="0.35">
    <circle cx="1030" cy="140" r="220" fill="url(#paint1_radial)"/>
    <circle cx="220" cy="520" r="260" fill="url(#paint2_radial)"/>
  </g>
  <path d="M210 435C315 375 420 355 525 375C630 395 705 372 825 312C945 252 1020 252 1080 262" stroke="rgba(255,255,255,0.22)" stroke-width="40" stroke-linecap="round" stroke-linejoin="round"/>
  <path d="M380 318C445 268 525 260 585 292C645 324 705 305 765 255" stroke="rgba(255,255,255,0.28)" stroke-width="28" stroke-linecap="round"/>
  <path d="M285 268C340 210 420 172 500 198C580 224 600 244 670 220C740 196 825 148 915 170" stroke="rgba(255,255,255,0.16)" stroke-width="24" stroke-linecap="round"/>
  <path d="M460 455C540 410 620 430 675 470C730 510 820 505 890 465" stroke="rgba(255,255,255,0.22)" stroke-width="26" stroke-linecap="round"/>
  <g opacity="0.85">
    <path d="M760 225C720 215 690 190 705 170C720 150 755 160 770 175C785 190 810 215 840 210C870 205 915 165 925 140C935 115 960 120 970 145C980 170 960 210 915 240C870 270 840 280 820 285C800 290 780 280 760 225Z" fill="rgba(255,255,255,0.12)"/>
    <path d="M852 267C838 246 843 220 865 215C887 210 905 220 908 240C912 260 898 285 880 292C862 298 852 288 852 267Z" fill="rgba(255,255,255,0.15)"/>
  </g>
  <rect x="140" y="128" width="540" height="70" rx="35" fill="rgba(255,255,255,0.12)"/>
  <text x="168" y="174" fill="#FFE7B2" font-family="'Cinzel', 'Segoe UI', sans-serif" font-size="36" font-weight="600" letter-spacing="0.12em">2026 RED HORSE YEAR</text>
  <text x="140" y="244" fill="#FFFFFF" font-family="'Playfair Display', 'Georgia', serif" font-size="68" font-weight="700" letter-spacing="0.02em">American Career Playbook</text>
  <text x="140" y="310" fill="rgba(255,255,255,0.78)" font-family="'Inter', 'Segoe UI', sans-serif" font-size="28" font-weight="500">
    <tspan x="140" y="310">BaZi strategies to thrive in a Fire-fueled market.</tspan>
  </text>
  <text x="140" y="356" fill="rgba(255,255,255,0.62)" font-family="'Inter', 'Segoe UI', sans-serif" font-size="22">
    <tspan x="140" y="356">Timing • Energy Management • U.S. Industry Outlook</tspan>
  </text>
  <defs>
    <linearGradient id="paint0_linear" x1="180" y1="60" x2="1020" y2="615" gradientUnits="userSpaceOnUse">
      <stop offset="0" stop-color="#0B1224"/>
      <stop offset="0.4" stop-color="#111C3D"/>
      <stop offset="1" stop-color="#1B2852"/>
    </linearGradient>
    <radialGradient id="paint1_radial" cx="0" cy="0" r="1" gradientUnits="userSpaceOnUse" gradientTransform="translate(1030 140) rotate(90) scale(220)">
      <stop stop-color="#F97316" stop-opacity="0.55"/>
      <stop offset="1" stop-color="#F97316" stop-opacity="0"/>
    </radialGradient>
    <radialGradient id="paint2_radial" cx="0" cy="0" r="1" gradientUnits="userSpaceOnUse" gradientTransform="translate(220 520) rotate(90) scale(260)">
      <stop stop-color="#FACC15" stop-opacity="0.4"/>
      <stop offset="1" stop-color="#FACC15" stop-opacity="0"/>
    </radialGradient>
  </defs>
</svg>

